<svg width="35" height="35" viewBox="0 0 35 35" fill="none" xmlns="http://www.w3.org/2000/svg">
<rect width="35" height="35" fill="#222222"/>
<path d="M17.5 19.097L11.9106 24.6863C11.7015 24.8954 11.4354 25 11.1122 25C10.789 25 10.5228 24.8954 10.3137 24.6863C10.1046 24.4772 10 24.211 10 23.8878C10 23.5646 10.1046 23.2985 10.3137 23.0894L15.903 17.5L10.3137 11.9106C10.1046 11.7015 10 11.4354 10 11.1122C10 10.789 10.1046 10.5228 10.3137 10.3137C10.5228 10.1046 10.789 10 11.1122 10C11.4354 10 11.7015 10.1046 11.9106 10.3137L17.5 15.903L23.0894 10.3137C23.2985 10.1046 23.5646 10 23.8878 10C24.211 10 24.4772 10.1046 24.6863 10.3137C24.8954 10.5228 25 10.789 25 11.1122C25 11.4354 24.8954 11.7015 24.6863 11.9106L19.097 17.5L24.6863 23.0894C24.8954 23.2985 25 23.5646 25 23.8878C25 24.211 24.8954 24.4772 24.6863 24.6863C24.4772 24.8954 24.211 25 23.8878 25C23.5646 25 23.2985 24.8954 23.0894 24.6863L17.5 19.097Z" fill="white"/>
</svg>
