<svg width="45" height="45" viewBox="0 0 45 45" fill="none" xmlns="http://www.w3.org/2000/svg">
<g clip-path="url(#clip0_481_176)">
<path d="M23 22.9999C23 20.6311 24.9942 18.7107 27.4542 18.7107C29.9141 18.7107 31.9084 20.6311 31.9084 22.9999C31.9084 25.3688 29.9141 27.2891 27.4542 27.2891C24.9942 27.2891 23 25.3688 23 22.9999Z" fill="#1ABCFE"/>
<path d="M14.0916 31.5785C14.0916 29.2097 16.0858 27.2893 18.5457 27.2893H22.9999V31.5785C22.9999 33.9474 21.0057 35.8677 18.5457 35.8677C16.0858 35.8677 14.0916 33.9474 14.0916 31.5785Z" fill="#0ACF83"/>
<path d="M23 10.1323V18.7107H27.4542C29.9142 18.7107 31.9084 16.7904 31.9084 14.4215C31.9084 12.0527 29.9142 10.1323 27.4542 10.1323H23Z" fill="#FF7262"/>
<path d="M14.0916 14.4215C14.0916 16.7904 16.0858 18.7107 18.5457 18.7107H22.9999V10.1323H18.5457C16.0858 10.1323 14.0916 12.0527 14.0916 14.4215Z" fill="#F24E1E"/>
<path d="M14.0916 22.9999C14.0916 25.3688 16.0858 27.2891 18.5457 27.2891H22.9999V18.7107H18.5457C16.0858 18.7107 14.0916 20.6311 14.0916 22.9999Z" fill="#A259FF"/>
</g>
<defs>
<clipPath id="clip0_481_176">
<rect width="18" height="26" fill="white" transform="translate(14 10)"/>
</clipPath>
</defs>
</svg>
