<svg width="45" height="45" viewBox="0 0 45 45" fill="none" xmlns="http://www.w3.org/2000/svg">
<g clip-path="url(#clip0_481_185)">
<path fill-rule="evenodd" clip-rule="evenodd" d="M22.8781 8.38965C15.2039 8.38965 9 14.6277 9 22.345C9 28.5139 12.975 33.7357 18.4895 35.5839C19.1789 35.7228 19.4315 35.2836 19.4315 34.9141C19.4315 34.5906 19.4087 33.4816 19.4087 32.3262C15.5482 33.1581 14.7443 30.6626 14.7443 30.6626C14.1238 29.0452 13.2046 28.6296 13.2046 28.6296C11.941 27.7747 13.2966 27.7747 13.2966 27.7747C14.6982 27.8671 15.4337 29.2072 15.4337 29.2072C16.6743 31.3326 18.6733 30.7321 19.4775 30.3623C19.5923 29.4612 19.9601 28.8374 20.3507 28.4909C17.2717 28.1674 14.0321 26.966 14.0321 21.6055C14.0321 20.0806 14.5832 18.833 15.4564 17.8627C15.3187 17.5162 14.836 16.0834 15.5945 14.1658C15.5945 14.1658 16.7663 13.7961 19.4085 15.5983C20.5397 15.2928 21.7063 15.1374 22.8781 15.1361C24.0499 15.1361 25.2445 15.298 26.3475 15.5983C28.99 13.7961 30.1618 14.1658 30.1618 14.1658C30.9203 16.0834 30.4373 17.5162 30.2996 17.8627C31.1958 18.833 31.7242 20.0806 31.7242 21.6055C31.7242 26.966 28.4846 28.1441 25.3825 28.4909C25.8882 28.9298 26.3245 29.7615 26.3245 31.0786C26.3245 32.95 26.3018 34.4519 26.3018 34.9138C26.3018 35.2836 26.5546 35.7228 27.2438 35.5841C32.7582 33.7354 36.7333 28.5139 36.7333 22.345C36.756 14.6277 30.5294 8.38965 22.8781 8.38965Z" fill="#24292F"/>
</g>
<defs>
<clipPath id="clip0_481_185">
<rect width="45" height="45" fill="white"/>
</clipPath>
</defs>
</svg>
